<?xml version="1.0" encoding="UTF-8" standalone="no"?>
<svg
   xmlns:dc="http://purl.org/dc/elements/1.1/"
   xmlns:cc="http://creativecommons.org/ns#"
   xmlns:rdf="http://www.w3.org/1999/02/22-rdf-syntax-ns#"
   xmlns:svg="http://www.w3.org/2000/svg"
   xmlns="http://www.w3.org/2000/svg"
   xmlns:sodipodi="http://sodipodi.sourceforge.net/DTD/sodipodi-0.dtd"
   xmlns:inkscape="http://www.inkscape.org/namespaces/inkscape"
   width="210mm"
   height="80mm"
   viewBox="0 0 210 80"
   version="1.1"
   id="svg5"
   inkscape:version="1.0.1 (3bc2e813f5, 2020-09-07)"
   sodipodi:docname="EQNT logo nowe.svg">
  <metadata
     id="metadata35">
    <rdf:RDF>
      <cc:Work
         rdf:about="">
        <dc:format>image/svg+xml</dc:format>
        <dc:type
           rdf:resource="http://purl.org/dc/dcmitype/StillImage" />
        <dc:title></dc:title>
      </cc:Work>
    </rdf:RDF>
  </metadata>
  <sodipodi:namedview
     id="namedview7"
     pagecolor="#ffffff"
     bordercolor="#666666"
     borderopacity="1.0"
     inkscape:pageshadow="2"
     inkscape:pageopacity="0.0"
     inkscape:pagecheckerboard="0"
     inkscape:document-units="mm"
     showgrid="false"
     inkscape:zoom="0.7071068"
     inkscape:cx="438.96636"
     inkscape:cy="192.40645"
     inkscape:window-width="1920"
     inkscape:window-height="1017"
     inkscape:window-x="-8"
     inkscape:window-y="-8"
     inkscape:window-maximized="1"
     inkscape:current-layer="layer2"
     inkscape:snap-intersection-paths="true"
     inkscape:snap-bbox="true"
     inkscape:snap-bbox-midpoints="true"
     inkscape:bbox-nodes="true"
     inkscape:snap-bbox-edge-midpoints="true"
     inkscape:bbox-paths="true"
     inkscape:snap-nodes="true"
     inkscape:snap-smooth-nodes="true"
     inkscape:snap-midpoints="true"
     inkscape:object-paths="true"
     showguides="false"
     inkscape:guide-bbox="true"
     inkscape:document-rotation="0">
    <sodipodi:guide
       position="127.07751,230.36119"
       orientation="0,-1"
       id="guide78981" />
    <sodipodi:guide
       position="127.07751,242.90874"
       orientation="0,-1"
       id="guide78983" />
    <sodipodi:guide
       position="128.24928,248.32701"
       orientation="0,-1"
       id="guide78985" />
    <sodipodi:guide
       position="131.38301,225.06641"
       orientation="0,-1"
       id="guide78987" />
    <sodipodi:guide
       position="143.79949,248.32701"
       orientation="1,0"
       id="guide78989" />
    <sodipodi:guide
       position="160.64393,246.17572"
       orientation="1,0"
       id="guide78991" />
    <sodipodi:guide
       position="148.33203,244.54635"
       orientation="1,0"
       id="guide80002" />
    <sodipodi:guide
       position="155.86729,228.8449"
       orientation="1,0"
       id="guide80004" />
    <sodipodi:guide
       position="143.75143,236.69671"
       orientation="0,-1"
       id="guide80162" />
    <sodipodi:guide
       position="150.27062,239.13197"
       orientation="1,0"
       id="guide80187" />
    <sodipodi:guide
       position="153.92135,231.91251"
       orientation="1,0"
       id="guide80189" />
    <sodipodi:guide
       position="160.64393,242.90875"
       orientation="0,-1"
       id="guide87765" />
    <inkscape:grid
       type="xygrid"
       id="grid89204" />
  </sodipodi:namedview>
  <defs
     id="defs2">
    <rect
       x="469.5189"
       y="337.99704"
       width="172.53405"
       height="161.92745"
       id="rect60299" />
    <rect
       x="421"
       y="326.5"
       width="150.5"
       height="106.5"
       id="rect44856" />
    <rect
       x="562.5"
       y="325.5"
       width="127.5"
       height="106"
       id="rect27816" />
    <rect
       x="197.98989"
       y="-104.6518"
       width="473.76153"
       height="94.752306"
       id="rect3890" />
  </defs>
  <g
     inkscape:groupmode="layer"
     id="layer2"
     inkscape:label="Warstwa 2"
     style="display:inline;opacity:1">
    <circle
       style="opacity:1;fill:#000000;fill-opacity:1;stroke-width:0.0718457"
       id="path3710"
       cx="52.408215"
       cy="24.031206"
       r="5.7294226"
       inkscape:export-filename="C:\Users\Bogdan\Desktop\eqt\EQNT logo białe.png"
       inkscape:export-xdpi="300"
       inkscape:export-ydpi="300" />
    <path
       id="path859"
       style="opacity:1;fill:#000000;fill-opacity:1;stroke-width:0.479709"
       d="m 197.58203,25.572266 c -0.0955,9.944651 -8.17989,17.95845 -18.125,17.966796 -4.3734,-0.01735 -8.59332,-1.61404 -11.88281,-4.496093 0.47667,1.642589 0.71864,3.344334 0.71875,5.054687 -2.4e-4,10.018692 -8.12194,18.140385 -18.14063,18.140625 -0.65926,-0.0045 -1.31779,-0.04491 -1.97265,-0.121093 1.96859,2.926012 3.04165,6.362375 3.08789,9.888671 -0.0267,9.546584 -7.44774,17.438933 -16.97461,18.052735 v 1.228515 c 9.52687,0.613802 16.94788,8.506156 16.97461,18.052731 -0.0462,3.5263 -1.1193,6.96266 -3.08789,9.88868 0.65486,-0.0762 1.31339,-0.11661 1.97265,-0.1211 10.01869,2.4e-4 18.14039,8.12194 18.14063,18.14063 -1.1e-4,1.71035 -0.24209,3.41209 -0.71875,5.05468 3.28949,-2.88205 7.50941,-4.47874 11.88281,-4.49609 9.95946,0.006 18.05147,6.04084 18.12891,16 h 1.16601 c 0.0774,-9.95916 8.16945,-15.99363 18.12891,-16 4.3734,0.0174 7.04667,1.61412 10.46875,6.04297 h 32.22461 c -9.39281,-4.84878 -15.88325,-16.62078 -15.88672,-28.81445 0.004,-13.37976 7.78867,-23.491422 18.36328,-23.853519 v -0.480469 l -0.002,-0.0293 0.002,-0.0293 v -0.583984 c -9.52918,-0.610853 -16.95354,-8.504034 -16.98047,-18.052735 0.0462,-3.526296 1.1193,-6.962659 3.08789,-9.888671 -0.65486,0.07618 -1.31339,0.116603 -1.97265,0.121093 -10.01869,-2.4e-4 -18.14039,-8.121933 -18.14063,-18.140625 1.1e-4,-1.710353 0.24208,-3.412098 0.71875,-5.054687 -3.28949,2.882053 -7.50941,4.478743 -11.88281,4.496093 -9.94511,-0.0083 -18.02947,-8.022145 -18.125,-17.966796 z m 0.52149,30.091796 c 19.39138,1.7e-4 35.11116,15.719949 35.11132,35.111329 -1.6e-4,19.391379 -15.71994,35.111159 -35.11132,35.111329 -19.39138,-1.6e-4 -35.11117,-15.71995 -35.11133,-35.111329 1.6e-4,-19.391384 15.71995,-35.111165 35.11133,-35.111329 z"
       transform="scale(0.26458333)"
       sodipodi:nodetypes="ccccccccccccccccccccccccccccccccccccccc"
       inkscape:export-filename="C:\Users\Bogdan\Desktop\eqt\EQNT logo białe.png"
       inkscape:export-xdpi="300"
       inkscape:export-ydpi="300" />
    <path
       id="path21726"
       style="font-variation-settings:normal;opacity:1;vector-effect:none;fill:#000000;fill-opacity:1;stroke:none;stroke-width:0.431694;stroke-linecap:butt;stroke-linejoin:miter;stroke-miterlimit:4;stroke-dasharray:none;stroke-dashoffset:0;stroke-opacity:1;stop-color:#000000;stop-opacity:1"
       d="m 601.86615,34.673828 c -31.00076,-5.58e-4 -56.13229,25.130095 -56.13281,56.13086 -5.6e-4,31.001532 25.13128,56.133372 56.13281,56.132812 31.00076,-5.2e-4 56.13142,-25.13205 56.13086,-56.132812 -5.2e-4,-31.000003 -25.13086,-56.130341 -56.13086,-56.13086 z m 0,20.50586 c 19.67498,3.9e-4 35.62461,15.950017 35.625,35.625 6.9e-4,19.675742 -15.94926,35.626562 -35.625,35.626952 -19.67651,6.9e-4 -35.62764,-15.95045 -35.62695,-35.626952 3.9e-4,-19.675744 15.95121,-35.625687 35.62695,-35.625 z"
       sodipodi:nodetypes="sssssccccc"
       transform="scale(0.26458333)"
       inkscape:export-filename="C:\Users\Bogdan\Desktop\eqt\EQNT logo białe.png"
       inkscape:export-xdpi="300"
       inkscape:export-ydpi="300" />
    <path
       d="m 137.78026,38.201795 v -5.95312 -16.439819 -0.56483 c 0,-3.29803 -3.84572,-5.9531205 -6.74688,-5.9531205 h -5.55005 c -2.0991,0 -2.64536,0.7644905 -3.65249,1.5466705 V 9.2909055 h -5.74022 -0.74827 V 38.201795 h 0.74827 5.74022 V 18.345136 c 0,-1.66161 2.57251,-2.9993 4.83847,-2.9993 h 1.13223 c 2.26595,0 4.09019,1.33769 4.09019,2.9993 v 19.856659 h 3.32744 z"
       style="opacity:1;fill:#000000;fill-opacity:1;stroke-width:0.113849"
       id="path14470"
       inkscape:export-filename="C:\Users\Bogdan\Desktop\eqt\EQNT logo białe.png"
       inkscape:export-xdpi="300"
       inkscape:export-ydpi="300" />
    <path
       id="path3710-1"
       style="display:inline;fill:#000000;fill-opacity:1;stroke-width:0.271543"
       d="m 601.8642,69.150391 c -1.72315,0.0035 -3.43971,0.212661 -5.11328,0.623047 5.32341,1.785144 8.94901,7.083484 8.94922,13.078124 -5e-4,7.566751 -5.70725,13.700243 -12.74609,13.699219 -5.74669,-0.0052 -10.77927,-4.14422 -12.28711,-10.105469 -0.29953,1.434565 -0.45267,2.895833 -0.45704,4.361329 1.2e-4,11.959289 9.69501,21.654179 21.6543,21.654299 11.96005,9.6e-4 21.65613,-9.69425 21.65625,-21.654299 9.6e-4,-11.960815 -9.69544,-21.657211 -21.65625,-21.65625 z"
       sodipodi:nodetypes="ccccccccc"
       transform="scale(0.26458333)"
       inkscape:export-filename="C:\Users\Bogdan\Desktop\eqt\EQNT logo białe.png"
       inkscape:export-xdpi="300"
       inkscape:export-ydpi="300" />
    <path
       id="rect21521-1"
       style="display:inline;opacity:1;fill:#000000;fill-opacity:1;stroke:none;stroke-width:0.377953;stop-color:#000000"
       d="M 343.92383,183.96094 V 271.875 H 367.125 v -47.54883 l 10.14258,17.56836 3.52539,6.10547 h 13.30078 l 3.52539,-6.10547 10.14258,-17.56836 V 271.875 h 23.20117 v -87.91406 h -23.20117 l -20.31836,35.1914 -20.31836,-35.1914 z"
       transform="scale(0.26458333)"
       inkscape:export-filename="C:\Users\Bogdan\Desktop\eqt\EQNT logo białe.png"
       inkscape:export-xdpi="300"
       inkscape:export-ydpi="300" />
    <path
       id="rect5345"
       style="display:inline;opacity:1;fill:#000000;fill-opacity:1;stroke-width:0.430295"
       d="m 275.19531,35 v 22.5 62.13477 2.13476 c 0,12.46499 14.535,22.5 25.5,22.5 h 20.97657 c 7.93328,0 9.99823,-2.88941 13.80468,-5.8457 v 5.8457 H 357.17188 360 V 35 h -2.82812 -21.69532 v 75.04883 c 0,6.28009 -9.72287,11.33594 -18.28711,11.33594 h -4.27929 c -8.56424,0 -15.45899,-5.05585 -15.45899,-11.33594 V 35 H 284.875 Z M 40.525391,35.115234 V 271.875 H 132.16797 V 247.67578 H 73.185547 v -68.60156 -8.14258 -2.38672 H 122.25 l 11.12891,-21.55469 H 73.185547 V 59.330078 H 133.93555 L 146.4375,35.115234 Z m 345.390629,0 V 144.38477 h 24.52343 V 35.115234 Z m 274.14257,0 31.70899,93.054686 -41.58789,74.63867 -0.9375,1.63086 h 0.0293 32.83204 l 20.08007,-36.60156 1.91211,-3.48437 36.63868,107.52148 h 29.29296 L 722.16602,131.41797 773.08789,38.599609 775,35.115234 H 743.58594 L 741.67383,38.599609 709.76172,95.875 689.05859,35.115234 Z m -463.74023,124.919926 -4.39453,8.50976 h 423.82031 l 4.74024,-8.50976 z m -4.39453,23.92578 v 20.47851 h 24.46094 V 271.875 h 23.20117 V 205.5 204.43945 H 264 v -20.47851 z m 100.82617,0 V 271.875 h 23.20117 v -87.91406 z m 164.33008,0 v 81.82226 6.07618 0.0156 h 63.66406 v -20.01172 h -40.45117 v -15.82422 h 34.83398 v -15.77539 h -34.83398 v -15.82422 h 40.45117 v -20.47851 z m 115.13281,0 c -8.83301,0 -15.85703,2.36684 -21.07422,7.09961 -5.21715,4.67774 -7.82617,10.51088 -7.82617,17.5 0,6.32873 1.91191,13.60676 5.73438,17.45898 3.82241,3.85227 8.96105,6.43899 15.41796,7.75977 l 14.25391,3.30078 c 8.25897,1.65238 8.136,14.7832 0.78125,14.7832 H 550.40625 L 539.42773,271.875 h 35.10938 c 9.86612,0 17.77063,-2.33984 23.71094,-7.01758 5.94035,-4.73277 8.91015,-10.92276 8.91015,-18.57226 0,-13.37284 -7.97997,-21.59982 -23.9414,-24.68164 l -12.51563,-2.89063 c -7.56643,-1.43218 -7.43833,-14.27344 0,-14.27344 H 595.75 l 11.40625,-20.47851 z"
       transform="scale(0.26458333)"
       sodipodi:nodetypes="cccssscccccccssssccccccccccccccccccccccccccccccccccccccccccccccccccccccccccccccccccccccccccccscssccsccscsccsccs"
       inkscape:export-filename="C:\Users\Bogdan\Desktop\eqt\EQNT logo białe.png"
       inkscape:export-xdpi="300"
       inkscape:export-ydpi="300" />
    <g
       id="g76261"
       transform="matrix(1.0355059,0,0,1.103207,-4.3858606,-20.72518)" />
  </g>
</svg>
